<svg width="11" height="20" viewBox="0 0 11 20" fill="none" xmlns="http://www.w3.org/2000/svg">
<path d="M2.79849 10.7913C2.72853 10.7913 1.18936 10.7913 0.489735 10.7913C0.116604 10.7913 0 10.6479 0 10.2894C0 9.33333 0 8.35336 0 7.3973C0 7.01488 0.139924 6.89537 0.489735 6.89537H2.79849C2.79849 6.82366 2.79849 5.43737 2.79849 4.79203C2.79849 3.83597 2.96173 2.92771 3.42815 2.09115C3.91788 1.2307 4.61751 0.657061 5.50369 0.322439C6.08671 0.107325 6.66973 0.0117188 7.29939 0.0117188H9.58482C9.91131 0.0117188 10.0512 0.155128 10.0512 0.48975V3.21453C10.0512 3.54915 9.91131 3.69256 9.58482 3.69256C8.95516 3.69256 8.3255 3.69256 7.69584 3.71646C7.06618 3.71646 6.73969 4.02718 6.73969 4.69642C6.71637 5.41347 6.73969 6.10662 6.73969 6.84756H9.4449C9.81803 6.84756 9.95795 6.99097 9.95795 7.3734V10.2655C9.95795 10.6479 9.84135 10.7674 9.4449 10.7674C8.60535 10.7674 6.80965 10.7674 6.73969 10.7674V18.5593C6.73969 18.9657 6.62309 19.1091 6.20332 19.1091C5.22384 19.1091 4.26769 19.1091 3.28822 19.1091C2.93841 19.1091 2.79849 18.9657 2.79849 18.6071C2.79849 16.0975 2.79849 10.863 2.79849 10.7913Z" fill="white"/>
</svg>
