<svg width="30" height="18" viewBox="0 0 30 18" fill="none" xmlns="http://www.w3.org/2000/svg">
<path d="M29.4839 7.04276H26.7185V4.27734H23.953V7.04276H21.1876V9.80818H23.953V12.5736H26.7185V9.80818H29.4839V7.04276Z" fill="white"/>
<path d="M9.26204 10.4167H14.9916C14.404 12.9142 12.0534 14.8241 9.26204 14.8241C6.02996 14.8241 3.38552 12.1797 3.38552 8.94759C3.38552 5.7155 6.02996 3.07107 9.26204 3.07107C10.8781 3.07107 12.3472 3.65872 13.3756 4.83402L15.4324 2.77724C13.8163 1.1612 11.6126 0.132812 9.26204 0.132812C4.41391 0.132812 0.447266 4.09946 0.447266 8.94759C0.447266 13.7957 4.41391 17.7624 9.26204 17.7624C14.1102 17.7624 18.0768 13.7957 18.0768 8.94759V7.47846H9.26204V10.4167Z" fill="white"/>
</svg>
