<svg width="21" height="21" viewBox="0 0 21 21" fill="none" xmlns="http://www.w3.org/2000/svg">
<path d="M20.4624 20.7634V13.4413C20.4624 9.84268 19.6909 7.09375 15.5103 7.09375C13.4946 7.09375 12.1508 8.19332 11.6033 9.24291H11.5535V7.41862H7.5968V20.7634H11.7277V14.141C11.7277 12.3917 12.0512 10.7173 14.1913 10.7173C16.3066 10.7173 16.3315 12.6916 16.3315 14.241V20.7384H20.4624V20.7634Z" fill="white"/>
<path d="M1.16345 7.09375H5.18395V20.7634H1.16345V7.09375Z" fill="white"/>
<path d="M2.77094 0.660156C1.43915 0.660156 0.358643 1.73507 0.358643 3.05995C0.358643 4.38484 1.43915 5.48475 2.77094 5.48475C4.10273 5.48475 5.18324 4.38484 5.18324 3.05995C5.18324 1.73507 4.10273 0.660156 2.77094 0.660156Z" fill="white"/>
</svg>
