<svg width="22" height="18" viewBox="0 0 22 18" fill="none" xmlns="http://www.w3.org/2000/svg">
<path d="M21.4897 2.14066C20.6939 2.47964 19.8717 2.71433 18.9964 2.81863C19.8982 2.29711 20.5878 1.46268 20.9061 0.445723C20.0574 0.941166 19.129 1.28015 18.1476 1.48876C17.3519 0.654331 16.2114 0.132812 14.9647 0.132812C12.551 0.132812 10.6148 2.06243 10.6148 4.40926C10.6148 4.74825 10.6413 5.06116 10.7209 5.37407C7.1136 5.21762 3.93071 3.49661 1.78226 0.91509C0.243862 3.62699 1.96793 5.86951 3.10846 6.62572C2.41884 6.62572 1.72921 6.41711 1.14568 6.1042C1.14568 8.21635 2.65755 9.96343 4.62034 10.3546C4.19595 10.485 3.24108 10.5632 2.65755 10.4328C3.21456 12.1277 4.83253 13.3794 6.71574 13.4055C5.23039 14.5528 3.05542 15.4655 0.270386 15.1786C2.20664 16.4042 4.48772 17.1082 6.95446 17.1082C14.9647 17.1082 19.3147 10.5893 19.3147 4.95686C19.3147 4.77433 19.3147 4.59179 19.2882 4.40926C20.19 3.75736 20.9327 3.00116 21.4897 2.14066Z" fill="white"/>
<path d="M21.4897 2.14066C20.6939 2.47964 19.8717 2.71433 18.9964 2.81863C19.8982 2.29711 20.5878 1.46268 20.9061 0.445723C20.0574 0.941166 19.129 1.28015 18.1476 1.48876C17.3519 0.654331 16.2114 0.132812 14.9647 0.132812C12.551 0.132812 10.6148 2.06243 10.6148 4.40926C10.6148 4.74825 10.6413 5.06116 10.7209 5.37407C7.1136 5.21762 3.93071 3.49661 1.78226 0.91509C0.243862 3.62699 1.96793 5.86951 3.10846 6.62572C2.41884 6.62572 1.72921 6.41711 1.14568 6.1042C1.14568 8.21635 2.65755 9.96343 4.62034 10.3546C4.19595 10.485 3.24108 10.5632 2.65755 10.4328C3.21456 12.1277 4.83253 13.3794 6.71574 13.4055C5.23039 14.5528 3.05542 15.4655 0.270386 15.1786C2.20664 16.4042 4.48772 17.1082 6.95446 17.1082C14.9647 17.1082 19.3147 10.5893 19.3147 4.95686C19.3147 4.77433 19.3147 4.59179 19.2882 4.40926C20.19 3.75736 20.9327 3.00116 21.4897 2.14066Z" fill="white"/>
</svg>
