<svg width="37" height="37" viewBox="0 0 37 37" fill="none" xmlns="http://www.w3.org/2000/svg">
<g clip-path="url(#clip0_2629_15618)">
<path d="M25.7188 3.08203C26.3155 3.08203 26.8878 3.31908 27.3097 3.74104C27.7317 4.163 27.9688 4.73529 27.9688 5.33203V32.332C27.9688 32.9288 27.7317 33.5011 27.3097 33.923C26.8878 34.345 26.3155 34.582 25.7188 34.582H12.2188C11.622 34.582 11.0497 34.345 10.6278 33.923C10.2058 33.5011 9.96875 32.9288 9.96875 32.332V5.33203C9.96875 4.73529 10.2058 4.163 10.6278 3.74104C11.0497 3.31908 11.622 3.08203 12.2188 3.08203H25.7188ZM12.2188 0.832031C11.0253 0.832031 9.88068 1.30614 9.03677 2.15005C8.19286 2.99396 7.71875 4.13856 7.71875 5.33203V32.332C7.71875 33.5255 8.19286 34.6701 9.03677 35.514C9.88068 36.3579 11.0253 36.832 12.2188 36.832H25.7188C26.9122 36.832 28.0568 36.3579 28.9007 35.514C29.7446 34.6701 30.2188 33.5255 30.2188 32.332V5.33203C30.2188 4.13856 29.7446 2.99396 28.9007 2.15005C28.0568 1.30614 26.9122 0.832031 25.7188 0.832031L12.2188 0.832031Z" fill="#273686"/>
<path d="M18.9688 32.332C19.5655 32.332 20.1378 32.095 20.5597 31.673C20.9817 31.2511 21.2188 30.6788 21.2188 30.082C21.2188 29.4853 20.9817 28.913 20.5597 28.491C20.1378 28.0691 19.5655 27.832 18.9688 27.832C18.372 27.832 17.7997 28.0691 17.3778 28.491C16.9558 28.913 16.7188 29.4853 16.7188 30.082C16.7188 30.6788 16.9558 31.2511 17.3778 31.673C17.7997 32.095 18.372 32.332 18.9688 32.332Z" fill="#273686"/>
</g>
<defs>
<clipPath id="clip0_2629_15618">
<rect width="36" height="36" fill="white" transform="translate(0.96875 0.832031)"/>
</clipPath>
</defs>
</svg>
