<svg width="49" height="49" viewBox="0 0 49 49" fill="none" xmlns="http://www.w3.org/2000/svg">
<g clip-path="url(#clip0_2654_19426)">
<path d="M6.99204 0.261591C6.87815 0.147695 6.74293 0.057349 6.59412 -0.0042908C6.44531 -0.0659306 6.28581 -0.0976562 6.12474 -0.0976562C5.96367 -0.0976563 5.80417 -0.0659306 5.65536 -0.0042908C5.50655 0.057349 5.37134 0.147695 5.25744 0.261591C5.14355 0.375486 5.0532 0.5107 4.99156 0.659512C4.92992 0.808323 4.89819 0.967819 4.89819 1.12889C4.89819 1.28996 4.92992 1.44946 4.99156 1.59827C5.0532 1.74708 5.14355 1.8823 5.25744 1.99619L8.09944 4.83574C7.21476 4.95113 6.40226 5.38441 5.81351 6.05475C5.22477 6.72509 4.89998 7.58671 4.89974 8.47889V25.6289C4.89974 26.6036 5.28693 27.5383 5.97612 28.2275C6.66532 28.9167 7.60007 29.3039 8.57474 29.3039H32.5676L35.0176 31.7539H10.008C10.2614 32.4707 10.7309 33.0913 11.3518 33.5301C11.9727 33.9689 12.7144 34.2043 13.4747 34.2039H35.5247C36.1274 34.2039 36.7179 34.1426 37.2863 34.0226L42.0074 38.7462C42.2375 38.9762 42.5494 39.1054 42.8747 39.1054C43.2 39.1054 43.512 38.9762 43.742 38.7462C43.9721 38.5162 44.1013 38.2042 44.1013 37.8789C44.1013 37.5536 43.9721 37.2416 43.742 37.0116L6.99204 0.261591ZM29.3997 26.136V26.8539H14.6997V24.4039C14.6997 23.1043 14.1835 21.858 13.2646 20.9391C12.3456 20.0201 11.0993 19.5039 9.79974 19.5039H7.34974V14.6039H9.79974C10.8376 14.6044 11.8487 14.2753 12.6875 13.6642C13.5263 13.053 14.1494 12.1913 14.467 11.2033L17.8284 14.5647C17.274 15.5008 17.0469 16.5948 17.1829 17.6742C17.319 18.7537 17.8104 19.7571 18.5797 20.5264C19.349 21.2957 20.3524 21.7871 21.4319 21.9231C22.5113 22.0592 23.6053 21.8321 24.5414 21.2777L29.3997 26.136ZM10.5176 7.25389L12.2497 8.98604V9.70389C12.2497 10.3537 11.9916 10.9768 11.5322 11.4363C11.0727 11.8958 10.4495 12.1539 9.79974 12.1539H7.34974V8.47889C7.34974 8.154 7.4788 7.84242 7.70854 7.61269C7.93827 7.38295 8.24985 7.25389 8.57474 7.25389H10.5176ZM19.6806 16.4193L22.6867 19.4206C22.2713 19.5313 21.8341 19.5308 21.4189 19.4193C21.0037 19.3077 20.6251 19.089 20.3211 18.785C20.0171 18.481 19.7983 18.1024 19.6868 17.6872C19.5752 17.272 19.5748 16.8348 19.6855 16.4193H19.6806ZM8.57474 26.8539C8.24985 26.8539 7.93827 26.7248 7.70854 26.4951C7.4788 26.2654 7.34974 25.9538 7.34974 25.6289V21.9539H9.79974C10.4495 21.9539 11.0727 22.212 11.5322 22.6715C11.9916 23.1309 12.2497 23.7541 12.2497 24.4039V26.8539H8.57474ZM34.2997 19.5039C33.0184 19.5039 31.8546 19.9939 30.9824 20.7975L32.717 22.5345C33.1589 22.1591 33.7199 21.9533 34.2997 21.9539H36.7497V25.6289C36.7498 25.8837 36.6702 26.1322 36.5219 26.3394L38.2614 28.0789C38.8445 27.4296 39.1997 26.5697 39.1997 25.6289V8.47889C39.1997 7.50422 38.8126 6.56947 38.1234 5.88027C37.4342 5.19108 36.4994 4.80389 35.5247 4.80389H14.9864L17.4364 7.25389H29.3997V9.70389C29.3997 11.0035 29.916 12.2498 30.8349 13.1687C31.7538 14.0876 33.0002 14.6039 34.2997 14.6039H36.7497V19.5039H34.2997ZM35.5247 7.25389C35.8496 7.25389 36.1612 7.38295 36.3909 7.61269C36.6207 7.84242 36.7497 8.154 36.7497 8.47889V12.1539H34.2997C33.65 12.1539 33.0268 11.8958 32.5673 11.4363C32.1079 10.9768 31.8497 10.3537 31.8497 9.70389V7.25389H35.5247ZM39.9984 29.8135L41.7306 31.5481C43.2006 30.007 44.0997 27.9221 44.0997 25.6289V13.3789C44.1001 12.6186 43.8647 11.8769 43.4259 11.256C42.9871 10.6351 42.3666 10.1656 41.6497 9.91214V25.6289C41.6497 27.2459 41.0225 28.7183 39.9984 29.8135Z" fill="#273686"/>
</g>
<defs>
<clipPath id="clip0_2654_19426">
<rect width="49" height="49" fill="white"/>
</clipPath>
</defs>
</svg>
