<svg width="72" height="41" viewBox="0 0 72 41" fill="none" xmlns="http://www.w3.org/2000/svg">
<path d="M29.2741 20.6477V18.7261H37.8587V20.6477H29.2741ZM29.2741 25.1385V23.2168H37.8587V25.1385H29.2741Z" fill="#1E0E62"/>
<path d="M20.1426 3.49438C20.8041 3.49438 21.4386 3.75718 21.9064 4.22497C22.3741 4.69276 22.6369 5.32721 22.6369 5.98876V35.9213C22.6369 36.5829 22.3741 37.2174 21.9064 37.6851C21.4386 38.1529 20.8041 38.4157 20.1426 38.4157H5.17626C4.51471 38.4157 3.88026 38.1529 3.41247 37.6851C2.94468 37.2174 2.68188 36.5829 2.68188 35.9213V5.98876C2.68188 5.32721 2.94468 4.69276 3.41247 4.22497C3.88026 3.75718 4.51471 3.49438 5.17626 3.49438H20.1426ZM5.17626 1C3.85316 1 2.58425 1.5256 1.64867 2.46118C0.7131 3.39675 0.1875 4.66566 0.1875 5.98876V35.9213C0.1875 37.2444 0.7131 38.5134 1.64867 39.4489C2.58425 40.3845 3.85316 40.9101 5.17626 40.9101H20.1426C21.4657 40.9101 22.7346 40.3845 23.6701 39.4489C24.6057 38.5134 25.1313 37.2444 25.1313 35.9213V5.98876C25.1313 4.66566 24.6057 3.39675 23.6701 2.46118C22.7346 1.5256 21.4657 1 20.1426 1L5.17626 1Z" fill="#273686"/>
<path d="M12.6598 35.9224C13.3213 35.9224 13.9558 35.6596 14.4236 35.1918C14.8914 34.724 15.1542 34.0895 15.1542 33.428C15.1542 32.7664 14.8914 32.132 14.4236 31.6642C13.9558 31.1964 13.3213 30.9336 12.6598 30.9336C11.9982 30.9336 11.3638 31.1964 10.896 31.6642C10.4282 32.132 10.1654 32.7664 10.1654 33.428C10.1654 34.0895 10.4282 34.724 10.896 35.1918C11.3638 35.6596 11.9982 35.9224 12.6598 35.9224Z" fill="#273686"/>
<path d="M56.3795 12.3309C56.9356 12.3309 57.469 12.0524 57.8622 11.5567C58.2554 11.061 58.4763 10.3887 58.4763 9.68762C58.4763 8.98659 58.2554 8.31427 57.8622 7.81856C57.469 7.32286 56.9356 7.04437 56.3795 7.04437C55.8234 7.04437 55.2901 7.32286 54.8969 7.81856C54.5036 8.31427 54.2827 8.98659 54.2827 9.68762C54.2827 10.3887 54.5036 11.061 54.8969 11.5567C55.2901 12.0524 55.8234 12.3309 56.3795 12.3309ZM57.6236 0.515548C57.2632 0.180664 56.8273 0 56.3795 0C55.9318 0 55.4958 0.180664 55.1354 0.515548L41.8556 12.8595C40.2284 14.3732 41.0769 17.6297 43.0997 17.6297H43.7986V30.3913C42.9705 30.8263 42.263 31.5606 41.7655 32.5018C41.2679 33.4429 41.0026 34.5486 41.0029 35.6796V38.3228C41.0029 39.0524 41.4725 39.6444 42.0513 39.6444H70.7078C70.9858 39.6444 71.2525 39.5052 71.4491 39.2574C71.6457 39.0095 71.7562 38.6733 71.7562 38.3228V35.6796C71.7562 34.5489 71.4907 33.4435 70.9932 32.5028C70.4957 31.562 69.7884 30.8279 68.9604 30.3931V17.6297H69.658C71.6821 17.6297 72.5306 14.3732 70.9021 12.8595L57.6236 0.515548ZM45.8954 29.9525V17.6297H49.3901V29.9525H45.8954ZM66.8636 17.6297V29.9525H63.3689V17.6297H66.8636ZM61.2721 17.6297V29.9525H57.4279V17.6297H61.2721ZM55.3311 17.6297V29.9525H51.4869V17.6297H55.3311ZM43.0997 14.9865L56.3795 2.64248L69.658 14.9865H43.0997ZM43.0997 35.6796C43.0997 33.9773 44.1956 32.5958 45.546 32.5958H67.2131C68.5634 32.5958 69.6594 33.9773 69.6594 35.6796V37.0012H43.0997V35.6796Z" fill="#273686"/>
</svg>
